#N canvas 371 409 293 283 10;
#X obj 84 13 inlet;
#X obj 84 39 bng 15 250 50 0 empty empty empty 17 7 0 10 -262144 -1
-1;
#X obj 84 62 t b b;
#X msg 153 112 0;
#X obj 84 149 f;
#X obj 119 149 + 1;
#X floatatom 84 178 5 0 0 0 - - -;
#X obj 84 207 sel \$1;
#X obj 84 87 tgl 15 0 empty empty empty 17 7 0 10 -262144 -1 -1 0 1
;
#X obj 84 241 outlet;
#X obj 136 242 outlet;
#X obj 84 112 metro 0.01;
#X obj 136 13 inlet;
#X connect 0 0 1 0;
#X connect 1 0 2 0;
#X connect 2 0 8 0;
#X connect 2 1 3 0;
#X connect 3 0 4 0;
#X connect 4 0 5 0;
#X connect 4 0 6 0;
#X connect 5 0 4 1;
#X connect 6 0 7 0;
#X connect 6 0 10 0;
#X connect 7 0 8 0;
#X connect 8 0 11 0;
#X connect 11 0 4 0;
#X connect 11 0 9 0;
#X connect 12 0 7 1;
