#N canvas 261 245 450 300 10;
#X obj 66 64 inlet~;
#X obj 67 245 outlet~;
#X obj 67 214 *~;
#X obj 107 136 hsl 128 15 0 1 0 1 empty empty vol -2 -8 0 10 -262144
-1 -1 7500 1;
#X obj 148 17 cnv 15 100 60 empty empty empty 20 12 0 14 -233017 -66577
0;
#X obj 299 123 pack 0 50;
#X obj 298 157 line~;
#X obj 284 62 inlet;
#X obj 151 245 outlet;
#X connect 0 0 2 0;
#X connect 2 0 1 0;
#X connect 3 0 5 0;
#X connect 3 0 8 0;
#X connect 5 0 6 0;
#X connect 6 0 2 1;
#X connect 7 0 3 0;
#X coords 0 -1 1 1 140 60 1 100 100;
