#N canvas 217 135 450 300 10;
#X obj 70 251 outlet~;
#X obj 70 19 inlet~;
#X obj 143 19 inlet;
#X obj 143 59 pack 0 50;
#X obj 143 89 line~;
#X obj 83 170 vd~ \$0-line 125;
#X obj 69 134 delwrite~ \$0-line 500;
#X obj 229 19 inlet;
#X obj 71 214 *~ 0.5;
#X connect 1 0 6 0;
#X connect 2 0 3 0;
#X connect 3 0 4 0;
#X connect 4 0 5 0;
#X connect 5 0 8 0;
#X connect 7 0 8 1;
#X connect 8 0 6 0;
#X connect 8 0 0 0;
